<svg xmlns="http://www.w3.org/2000/svg" viewBox="0 0 512 512" role="img" aria-labelledby="title">
  <title id="title">Quick Split app icon</title>
  <rect width="512" height="512" rx="112" fill="#17202a"/>
  <circle cx="256" cy="256" r="172" fill="#f6f7f2"/>
  <path d="M166 172h180c13 0 24 11 24 24v120c0 13-11 24-24 24H166c-13 0-24-11-24-24V196c0-13 11-24 24-24Z" fill="#ff6f61"/>
  <path d="M176 212h160M176 254h112M176 296h72" fill="none" stroke="#17202a" stroke-width="24" stroke-linecap="round"/>
  <path d="M344 186v140" fill="none" stroke="#f6f7f2" stroke-width="18" stroke-linecap="round" stroke-dasharray="7 26"/>
  <path d="M296 370c20 18 46 28 74 28 16 0 32-3 46-10M216 370c-20 18-46 28-74 28-16 0-32-3-46-10" fill="none" stroke="#17202a" stroke-width="22" stroke-linecap="round"/>
</svg>
